<svg t="1770963766209" class="icon" viewBox="0 0 1026 1024" version="1.1" xmlns="http://www.w3.org/2000/svg" p-id="5988" width="32" height="32"><path d="M890.16 248.34H749.81a22.14 22.14 0 0 1-15.65-6.47 22.1 22.1 0 0 1-6.49-15.64c0-12.22 9.91-22.12 22.14-22.12h22.71c21.56-0.24 38.9-17.78 38.9-39.33 0-21.56-17.35-39.1-38.9-39.33H566.81c-21.55 0.24-38.9 17.78-38.9 39.33 0 21.56 17.35 39.1 38.9 39.33h42.17c12.04 0.25 21.66 10.08 21.66 22.12 0 12.04-9.63 21.87-21.66 22.12h-57.95c-32.99 0-59.72 26.75-59.72 59.72 0 32.98 26.73 59.71 59.72 59.71h339.14c32.98 0 59.71-26.73 59.71-59.71 0-32.98-26.74-59.73-59.72-59.73zM417.03 756.5h-80.98c-13.72 0-24.84-11.12-24.84-24.85 0-13.72 11.12-24.84 24.84-24.84h25.51a44.14 44.14 0 0 0 31.23-12.94 44.173 44.173 0 0 0 12.93-31.23 44.131 44.131 0 0 0-12.93-31.23 44.106 44.106 0 0 0-31.23-12.93H44.17c-11.72 0-22.95 4.65-31.23 12.93S0 650.93 0 662.64s4.65 22.95 12.93 31.23a44.164 44.164 0 0 0 31.24 12.94h133.77c13.72 0 24.84 11.12 24.84 24.84s-11.12 24.85-24.84 24.85h-69.95c-37.03 0-67.05 30.02-67.05 67.06 0 37.02 30.02 67.05 67.05 67.05h309.05c37.03 0 67.06-30.02 67.06-67.05-0.01-37.04-30.03-67.06-67.07-67.06z m0 0" fill="#FFCB27" opacity=".26" p-id="5989"></path><path d="M384.27 147.07l10.28 10.28-10.28 10.28-10.28-10.28 10.28-10.28z m0 49.25l-10.28-10.28 10.28-10.28 10.28 10.28-10.28 10.28z m4.06-24.63l10.28-10.28 10.28 10.28-10.28 10.28-10.28-10.28z m-28.69 0l10.28-10.28 10.28 10.28-10.28 10.28-10.28-10.28z m0 0" fill="#FFB000" p-id="5990"></path><path d="M71.44 607.59l8.45 8.45-8.45 8.46-8.45-8.46 8.45-8.45z m-0.01 40.5l-8.45-8.45 8.45-8.45 8.45 8.45-8.45 8.45z m3.34-20.25l8.45-8.45 8.45 8.46-8.45 8.45-8.45-8.46z m-23.59 0l8.45-8.45 8.46 8.46-8.46 8.45-8.45-8.46z m0 0M720.59 852.11l8.45 8.45-8.45 8.45-8.46-8.45 8.46-8.45z m0 40.52l-8.46-8.45 8.46-8.45 8.45 8.45-8.45 8.45z m3.33-20.26l8.45-8.44 8.45 8.45-8.45 8.45-8.45-8.46z m-23.59 0l8.45-8.45 8.45 8.45-8.45 8.45-8.45-8.45z m0 0M1005.78 659.76l8.45 8.45-8.45 8.45-8.45-8.45 8.45-8.45z m0 40.52l-8.45-8.45 8.45-8.45 8.45 8.45-8.45 8.45z m3.33-20.26l8.45-8.45 8.45 8.45-8.45 8.45-8.45-8.45z m-23.59 0l8.45-8.45 8.45 8.46-8.45 8.45-8.45-8.46z m0 0M566.74 703.88l149.4 68.19c17.08 7.83 37.51 0.2 45.33-16.98l9.24-20.22c7.83-17.08 0.2-37.5-16.97-45.33l-149.4-68.19c-17.07-7.83-37.5-0.2-45.33 16.97l-9.24 20.22c-7.83 17.08-0.21 37.51 16.97 45.34z m0 0" fill="#FF664D" p-id="5991"></path><path d="M730.26 791.38c-7.01 0-14.13-1.43-20.94-4.58l-149.4-68.2c-12.2-5.59-21.55-15.65-26.33-28.25-4.77-12.61-4.27-26.33 1.33-38.62l9.25-20.22c11.59-25.31 41.57-36.49 66.87-25l149.4 68.2c12.19 5.59 21.55 15.65 26.32 28.25 4.67 12.7 4.27 26.33-1.32 38.62l-9.25 20.22c-8.42 18.6-26.72 29.58-45.93 29.58zM590.22 634.56c-6.81 0-13.32 3.86-16.37 10.47l-9.24 20.22c-1.93 4.37-2.13 9.25-0.41 13.72 1.73 4.47 4.98 8.13 9.35 10.06l149.4 68.2c9.04 4.06 19.72 0.1 23.78-8.84l9.25-20.23c1.93-4.37 2.13-9.24 0.41-13.72-1.73-4.47-4.98-8.13-9.36-10.06l-149.4-68.2a17.913 17.913 0 0 0-7.41-1.62z m0 0" fill="#CA3A2A" p-id="5992"></path><path d="M523.64 510.26l163.73-13.01c18.8-1.52 32.93-18.09 31.4-36.79l-1.73-22.16c-1.52-18.8-18.09-32.93-36.79-31.4l-163.83 13.01c-18.8 1.53-32.93 18.09-31.4 36.79l1.73 22.16c1.53 18.8 18.1 32.93 36.89 31.4z m0 0" fill="#FF664D" p-id="5993"></path><path d="M520.8 526.73c-11.99 0-23.48-4.27-32.62-12.09-10.27-8.74-16.56-20.94-17.58-34.35l-1.73-22.16c-2.24-27.75 18.6-52.14 46.35-54.37l163.73-13.01c13.41-1.02 26.43 3.15 36.69 11.89 10.27 8.74 16.56 20.94 17.58 34.35l1.73 22.16c1.02 13.41-3.15 26.43-11.89 36.69-8.74 10.26-20.94 16.56-34.35 17.58l-163.73 13.01c-1.44 0.19-2.76 0.3-4.18 0.3z m162-103.67c-0.51 0-0.91 0-1.42 0.1l-163.63 13.01c-9.86 0.81-17.28 9.45-16.47 19.31l1.73 22.16c0.41 4.78 2.64 9.05 6.3 12.2 3.66 3.15 8.33 4.68 13.01 4.27l163.73-13.01c4.78-0.41 9.05-2.64 12.2-6.3 3.15-3.66 4.68-8.34 4.27-13.01l-1.73-22.15c-0.41-4.78-2.64-9.05-6.3-12.2-3.36-2.85-7.42-4.38-11.69-4.38z m0 0" fill="#CA3A2A" p-id="5994"></path><path d="M527.92 599.39l158.54 42.69c18.19 4.88 37.1-6 41.98-24.19l5.79-21.44c4.88-18.19-5.99-37.09-24.19-41.97l-158.55-42.69c-18.19-4.88-37.09 6-41.97 24.19l-5.8 21.44c-4.87 18.29 6 37.1 24.2 41.97z m0 0" fill="#FF664D" p-id="5995"></path><path d="M695.3 659.56c-4.37 0-8.74-0.61-13.11-1.73l-158.55-42.68c-26.83-7.22-42.89-34.97-35.67-61.9l5.79-21.44c7.22-26.83 34.96-42.89 61.9-35.68l158.54 42.69c26.83 7.21 42.89 34.96 35.68 61.89l-5.8 21.45c-5.99 22.56-26.52 37.4-48.78 37.4zM542.55 526.93c-7.93 0-15.15 5.29-17.38 13.32l-5.8 21.44c-2.54 9.55 3.15 19.41 12.7 22.05l158.55 42.69c9.55 2.54 19.41-3.15 22.05-12.7l5.8-21.44c2.54-9.56-3.15-19.41-12.7-22.06l-158.55-42.68c-1.62-0.41-3.14-0.62-4.67-0.62z m0 0" fill="#CA3A2A" p-id="5996"></path><path d="M566.74 703.88l149.4 68.19c17.08 7.83 37.51 0.2 45.33-16.98l9.24-20.22c7.83-17.08 0.2-37.5-16.97-45.33l-149.4-68.19c-17.07-7.83-37.5-0.2-45.33 16.97l-9.24 20.22c-7.83 17.08-0.21 37.51 16.97 45.34z m0 0" fill="#FF664D" p-id="5997"></path><path d="M730.26 791.38c-7.01 0-14.13-1.43-20.94-4.58l-149.4-68.2c-12.2-5.59-21.55-15.65-26.33-28.25-4.77-12.61-4.27-26.33 1.33-38.62l9.25-20.22c11.59-25.31 41.57-36.49 66.87-25l149.4 68.2c12.19 5.59 21.55 15.65 26.32 28.25 4.67 12.7 4.27 26.33-1.32 38.62l-9.25 20.22c-8.42 18.6-26.72 29.58-45.93 29.58zM590.22 634.56c-6.81 0-13.32 3.86-16.37 10.47l-9.24 20.22c-1.93 4.37-2.13 9.25-0.41 13.72 1.73 4.47 4.98 8.13 9.35 10.06l149.4 68.2c9.04 4.06 19.72 0.1 23.78-8.84l9.25-20.23c1.93-4.37 2.13-9.24 0.41-13.72-1.73-4.47-4.98-8.13-9.36-10.06l-149.4-68.2a17.913 17.913 0 0 0-7.41-1.62z m0 0" fill="#CA3A2A" p-id="5998"></path><path d="M523.64 510.26l163.73-13.01c18.8-1.52 32.93-18.09 31.4-36.79l-1.73-22.16c-1.52-18.8-18.09-32.93-36.79-31.4l-163.83 13.01c-18.8 1.53-32.93 18.09-31.4 36.79l1.73 22.16c1.53 18.8 18.1 32.93 36.89 31.4z m0 0" fill="#FF664D" p-id="5999"></path><path d="M520.8 526.73c-11.99 0-23.48-4.27-32.62-12.09-10.27-8.74-16.56-20.94-17.58-34.35l-1.73-22.16c-2.24-27.75 18.6-52.14 46.35-54.37l163.73-13.01c13.41-1.02 26.43 3.15 36.69 11.89 10.27 8.74 16.56 20.94 17.58 34.35l1.73 22.16c1.02 13.41-3.15 26.43-11.89 36.69-8.74 10.26-20.94 16.56-34.35 17.58l-163.73 13.01c-1.44 0.19-2.76 0.3-4.18 0.3z m162-103.67c-0.51 0-0.91 0-1.42 0.1l-163.63 13.01c-9.86 0.81-17.28 9.45-16.47 19.31l1.73 22.16c0.41 4.78 2.64 9.05 6.3 12.2 3.66 3.15 8.33 4.68 13.01 4.27l163.73-13.01c4.78-0.41 9.05-2.64 12.2-6.3 3.15-3.66 4.68-8.34 4.27-13.01l-1.73-22.15c-0.41-4.78-2.64-9.05-6.3-12.2-3.36-2.85-7.42-4.38-11.69-4.38z m0 0" fill="#CA3A2A" p-id="6000"></path><path d="M527.92 599.39l158.54 42.69c18.19 4.88 37.1-6 41.98-24.19l5.79-21.44c4.88-18.19-5.99-37.09-24.19-41.97l-158.55-42.69c-18.19-4.88-37.09 6-41.97 24.19l-5.8 21.44c-4.87 18.29 6 37.1 24.2 41.97z m0 0" fill="#FF664D" p-id="6001"></path><path d="M695.3 659.56c-4.37 0-8.74-0.61-13.11-1.73l-158.55-42.68c-26.83-7.22-42.89-34.97-35.67-61.9l5.79-21.44c7.22-26.83 34.96-42.89 61.9-35.68l158.54 42.69c26.83 7.21 42.89 34.96 35.68 61.89l-5.8 21.45c-5.99 22.56-26.52 37.4-48.78 37.4zM542.55 526.93c-7.93 0-15.15 5.29-17.38 13.32l-5.8 21.44c-2.54 9.55 3.15 19.41 12.7 22.05l158.55 42.69c9.55 2.54 19.41-3.15 22.05-12.7l5.8-21.44c2.54-9.56-3.15-19.41-12.7-22.06l-158.55-42.68c-1.62-0.41-3.14-0.62-4.67-0.62z m0 0" fill="#CA3A2A" p-id="6002"></path><path d="M695.3 659.56c-4.37 0-8.74-0.61-13.11-1.73l-158.55-42.68c-26.83-7.22-42.89-34.97-35.67-61.9l5.79-21.44c7.22-26.83 34.96-42.89 61.9-35.68l158.54 42.69c26.83 7.21 42.89 34.96 35.68 61.89l-5.8 21.45c-5.99 22.56-26.52 37.4-48.78 37.4zM542.55 526.93c-7.93 0-15.15 5.29-17.38 13.32l-5.8 21.44c-2.54 9.55 3.15 19.41 12.7 22.05l158.55 42.69c9.55 2.54 19.41-3.15 22.05-12.7l5.8-21.44c2.54-9.56-3.15-19.41-12.7-22.06l-158.55-42.68c-1.62-0.41-3.14-0.62-4.67-0.62z m0 0" fill="#CA3A2A" p-id="6003"></path><path d="M553.63 914.77c-0.81 0-1.52-0.1-2.34-0.2-8.84-1.22-15.04-9.56-13.82-18.4 11.38-79.78-0.81-190.97-35.47-321.67-26.32-99.6-56.61-176.03-56.91-176.74-3.36-8.34 0.71-17.79 9.15-21.14 8.33-3.36 17.79 0.71 21.14 9.05 0.31 0.81 31.2 78.66 58.03 180.09 15.76 59.66 27.14 115.86 33.85 166.88 8.34 64.44 9.25 120.95 2.44 168.1-1.23 8.13-8.15 14.03-16.07 14.03z m0 0" fill="#CA3A2A" p-id="6004"></path><path d="M465.92 179.25c-3.36 0-6.51-0.61-9.45-1.93-10.67-4.57-16.56-16.57-17.99-36.49-1.83-26.12 4.68-86.28 36.79-105.8 13.62-8.23 29.47-7.73 44.82 1.62 27.75 16.87 33.74 47.57 15.95 82.02-8.03 15.65-20.73 31.51-34.76 43.5-13.41 11.28-25.3 17.08-35.36 17.08z m29.78-117.6c-2.54 0-4.27 1.33-6.09 3.05-7.62 7.42-14.23 24.69-17.28 45.22-2.24 14.84-1.93 26.73-0.81 33.75 4.78-2.95 11.69-8.44 19.41-16.97 11.69-13.01 20.02-27.74 22.15-39.33 2.04-10.77-0.91-17.69-9.86-23.17-3.25-1.73-5.69-2.55-7.52-2.55z m0 0" fill="#FF664D" p-id="6005"></path><path d="M493.46 156.99h-61.29c-9.65 0-18.9 3.86-25.71 10.67l-43.3 43.3a36.371 36.371 0 0 0-10.67 25.71v61.28c0 9.66 3.86 18.91 10.67 25.72l43.3 43.29a36.389 36.389 0 0 0 25.71 10.67h61.29c9.65 0 18.9-3.86 25.71-10.67l43.3-43.29a36.394 36.394 0 0 0 10.67-25.72v-61.28c0-9.66-3.86-18.9-10.67-25.71l-43.3-43.3a36.389 36.389 0 0 0-25.71-10.67z m0 0" fill="#FF664D" p-id="6006"></path><path d="M493.46 394h-61.29c-14.03 0-27.34-5.49-37.2-15.45l-43.3-43.29c-9.96-9.96-15.45-23.18-15.45-37.2v-61.29c0-14.02 5.49-27.34 15.45-37.19l43.3-43.3c9.96-9.96 23.17-15.45 37.2-15.45h61.29c14.02 0 27.34 5.49 37.19 15.45l43.3 43.3c9.96 9.96 15.45 23.17 15.45 37.19v61.18c0 14.03-5.49 27.34-15.45 37.2l-43.3 43.3C520.8 388.51 507.59 394 493.46 394z m-61.28-220.75c-5.39 0-10.47 2.14-14.23 5.9l-43.29 43.3a20.063 20.063 0 0 0-5.89 14.23v61.28c0 5.39 2.13 10.47 5.89 14.23l43.29 43.29c3.76 3.76 8.84 5.9 14.23 5.9h61.29c5.38 0 10.47-2.13 14.23-5.9l43.29-43.29c3.76-3.76 5.9-8.84 5.9-14.23v-61.28c0-5.38-2.13-10.47-5.9-14.23l-43.29-43.3c-3.76-3.76-8.84-5.9-14.23-5.9h-61.29z m0 0" fill="#CA3A2A" p-id="6007"></path><path d="M483.6 340.13h-41.97c-6.91 0-13.41-2.74-18.4-7.62l-29.68-29.68c-4.88-4.88-7.62-11.38-7.62-18.39v-41.98c0-6.91 2.74-13.41 7.62-18.4l29.68-29.68c4.88-4.88 11.38-7.62 18.4-7.62h41.97c6.91 0 13.42 2.74 18.4 7.62l29.68 29.68c4.88 4.88 7.62 11.38 7.62 18.4v41.98c0 6.91-2.74 13.41-7.62 18.39L502 332.51a26.005 26.005 0 0 1-18.4 7.62zM441.63 188.9c-6.4 0-12.4 2.44-16.87 7.02l-29.68 29.68c-4.47 4.47-7.01 10.57-7.01 16.87v41.98c0 6.4 2.44 12.4 7.01 16.87L424.76 331c4.47 4.48 10.57 7.02 16.87 7.02h41.97c6.4 0 12.4-2.44 16.87-7.02l29.68-29.68c4.47-4.47 7.01-10.57 7.01-16.87v-41.98c0-6.4-2.44-12.4-7.01-16.87l-29.68-29.68c-4.47-4.48-10.57-7.02-16.87-7.02h-41.97z m0 0" fill="#FFEB2E" p-id="6008"></path><path d="M584.22 857.54c15.15 15.15 15.15 39.74 0 54.89-15.14 15.14-39.73 15.14-54.88 0-15.14-15.15-15.14-39.74 0-54.89 15.24-15.14 39.74-15.14 54.88 0" fill="#FFCF48" p-id="6009"></path><path d="M570.7 871.06c7.62 7.62 7.62 20.12 0 27.75s-20.12 7.62-27.75 0-7.62-20.12 0-27.75c7.63-7.62 20.13-7.62 27.75 0" fill="#FF9E55" p-id="6010"></path><path d="M604.44 915.88a8.566 8.566 0 0 1 10.57-1.22l29.27 18.19c4.07 2.54 5.29 7.83 2.75 11.79-2.54 4.06-7.83 5.28-11.79 2.74l-29.27-18.19c-4.06-2.54-5.28-7.83-2.74-11.79l1.21-1.52z m7.73-42.58c0-3.87 2.65-7.42 6.61-8.34l33.64-7.83c4.57-1.12 9.24 1.83 10.26 6.41 1.12 4.57-1.83 9.25-6.4 10.26l-33.64 7.83c-4.57 1.12-9.25-1.83-10.27-6.4-0.1-0.61-0.2-1.32-0.2-1.93z m66.98-12.4l-30.29 8.44m-89.95 75.2c1.63-1.62 3.76-2.54 6.2-2.54 4.78 0 8.54 3.96 8.54 8.64l-0.31 29.68c0 4.78-3.96 8.54-8.64 8.54-4.77 0-8.54-3.96-8.54-8.64l0.3-29.68c-0.09-2.44 0.93-4.48 2.45-6z m-66.16-3.15l20.63-20.63a8.528 8.528 0 0 1 12.09 0 8.51 8.51 0 0 1 0 12.09l-20.63 20.63a8.522 8.522 0 0 1-12.1 0 8.537 8.537 0 0 1 0.01-12.09z m-30.89-50.31c1.52-1.52 3.55-2.44 5.89-2.54l30.8-0.61c4.77-0.1 8.64 3.66 8.74 8.44 0.1 4.77-3.66 8.64-8.44 8.74l-30.79 0.61c-4.78 0.1-8.64-3.66-8.74-8.44a8.78 8.78 0 0 1 2.54-6.2z m0 0" fill="#FFC278" p-id="6011"></path><path d="M421.5 236.46c-0.41-0.61-0.41-1.42 0.41-1.42h18.19c0.81 0 1.22-1.73 1.62-2.84 0.41-1.02 0.61-3.15 1.83-2.44l10.27 6.91c0.3 0.2 0.41 0.61 0.2 1.02-1.33 2.13-3.87 2.03-4.07 2.74-2.54 4.98-5.69 10.06-9.25 14.43-0.1 0.1-0.2 0.3-0.2 0.41v42.89c0 0.31-0.1 0.51-0.41 0.61-2.65 1.52-5.28 1.93-8.34 1.93-0.4 0-0.71-0.41-0.71-0.71v-33.54c0-0.61-0.71-0.92-1.22-0.51-2.23 1.93-4.68 3.76-7.11 5.28-0.71 0.41-1.42-0.41-1.02-1.12 1.22-1.52 2.44-3.25 3.66-5.08 0.51-0.91 5.69-8.84 5.69-9.45h0.1c3.05-5.79 5.99-11.99 8.43-18.09 0.2-0.41-0.2-1.02-0.6-1.02H421.5z m13.83-5.08c-1.02 0.41-2.84 1.32-3.05 0.3-1.43-5.08-3.05-10.16-4.78-14.94-0.2-0.41 0.31-1.02 0.81-0.91 2.34 0.41 4.37 1.01 6 1.83 3.05 1.42 6.3 3.86 6.51 7.01 0.2 3.46-2.55 5.6-5.49 6.71z m12.09 40.25c-0.51 0.31-2.03 1.22-2.23 0.11-1.32-4.68-2.13-9.76-3.96-14.23-0.2-0.51 0.41-1.22 0.91-1.01 3.96 1.32 9.36 4.27 9.56 8.74 0.09 3.34-1.43 5.27-4.28 6.39z m6.41-46.85c-0.92 0-1.02-1.52 0-1.52h48.48c0.91 0 0.81 1.52-0.1 1.52h-48.38z m45.83 34.14c0.41-0.1 0.81 0.2 0.81 0.71v40.76c0 0.41-0.31 0.61-0.61 0.71-3.05 0.41-6.91-0.3-9.45-2.13-1.01-0.61 0.41-3.86-1.12-3.86h-25c-1.63 0 0.1 3.56-1.22 4.06-2.84 1.32-5.79 1.73-8.94 1.73-0.41 0-0.71-0.41-0.71-0.71v-40.86c0-0.41 0.41-0.71 0.81-0.71 3.35 0.41 6.3 1.22 9.15 2.64 0.41 0.31 23.98 0.1 26.62 0.1v-0.1l9.66-2.34z m-3.05-27.03v23.48c0 0.41-0.31 0.71-0.61 0.71-3.05 0.2-6.71-0.41-9.35-2.03-0.92-0.51 0.3-2.64-1.12-2.64h-16.87c-1.53 0 0.1 2.95-1.12 3.45-2.95 1.32-5.89 1.73-9.04 1.73-0.41 0-0.71-0.41-0.71-0.71v-24.09c0-0.41 0.41-0.81 0.81-0.71 3.26 0.41 6.1 1.22 9.05 2.54 0.41 0.2 16.56 0.1 18.5 0.1 0.61 0 8.34-2.13 9.55-2.44 0.51-0.2 0.91 0.1 0.91 0.61z m-32.32 31c-0.41 0-0.71 0.3-0.71 0.71v13.01c0 0.41 0.41 0.71 0.71 0.71h6.81c0.41 0 0.72-0.41 0.72-0.71V263.7c0-0.41-0.41-0.71-0.72-0.71h-6.81v-0.1z m0 15.86c-0.41 0-0.71 0.41-0.71 0.71v13.52c0 0.41 0.41 0.71 0.71 0.71h6.81c0.41 0 0.72-0.3 0.72-0.71v-13.52c0-0.41-0.41-0.71-0.72-0.71h-6.81z m4.37-43.51c-0.41 0-0.71 0.41-0.71 0.71v13.41c0 0.41 0.41 0.71 0.71 0.71h16.87c0.41 0 0.71-0.3 0.71-0.71v-13.41c0-0.41-0.41-0.71-0.71-0.71h-16.87z m14.03 27.65c-0.41 0-0.71 0.3-0.71 0.71v13.01c0 0.41 0.3 0.71 0.71 0.71h6.51c0.41 0 0.71-0.41 0.71-0.71V263.7c0-0.41-0.3-0.71-0.71-0.71h-6.51v-0.1z m0 15.86c-0.41 0-0.71 0.41-0.71 0.71v13.52c0 0.41 0.3 0.71 0.71 0.71h6.51c0.41 0 0.71-0.3 0.71-0.71v-13.52c0-0.41-0.3-0.71-0.71-0.71h-6.51z m0 0" fill="#FFEC00" p-id="6012"></path><path d="M546.62 707.43L458.7 846.16c-10.06 15.85-31.3 20.63-47.26 10.56l-18.8-11.89c-15.85-10.06-20.63-31.3-10.57-47.26l87.91-138.73c10.06-15.85 31.3-20.63 47.26-10.57l18.8 11.89c15.86 10.17 20.64 31.41 10.58 47.27z m0 0" fill="#FF664D" p-id="6013"></path><path d="M429.74 878.38c-9.25 0-18.6-2.54-26.93-7.83L384 858.66c-23.48-14.94-30.49-46.14-15.65-69.62l87.91-138.73c7.22-11.38 18.4-19.21 31.61-22.16 13.22-2.95 26.73-0.61 38.01 6.6l18.8 11.89c23.48 14.94 30.49 46.14 15.65 69.62L472.42 854.9c-9.55 15.14-25.91 23.48-42.68 23.48z m69.31-219.02c-1.32 0-2.64 0.1-4.06 0.41a17.932 17.932 0 0 0-11.28 7.83L395.8 806.33c-5.28 8.34-2.85 19.52 5.59 24.8l18.8 11.89c8.33 5.28 19.51 2.84 24.8-5.59L532.9 698.7c5.28-8.33 2.84-19.51-5.59-24.8L508.5 662c-2.85-1.72-6.1-2.64-9.45-2.64z m0 0" fill="#CA3A2A" p-id="6014"></path><path d="M460.23 542.48L306.25 599.6c-17.69 6.51-37.4-2.54-44.01-20.22l-7.73-20.84c-6.5-17.68 2.54-37.4 20.23-44.01l153.97-57.11c17.69-6.51 37.4 2.54 44.01 20.22l7.72 20.83c6.52 17.59-2.63 37.4-20.21 44.01z m0 0" fill="#FF664D" p-id="6015"></path><path d="M294.36 618c-7.22 0-14.33-1.52-21.14-4.68-12.3-5.59-21.65-15.65-26.33-28.26l-7.72-20.83c-9.66-26.12 3.66-55.19 29.77-64.84l153.98-57.12c12.6-4.68 26.32-4.17 38.62 1.52 12.3 5.59 21.65 15.65 26.32 28.26l7.73 20.83c4.68 12.61 4.17 26.32-1.52 38.62-5.59 12.3-15.65 21.65-28.26 26.33l-153.97 57.01c-5.69 2.04-11.58 3.16-17.48 3.16z m146.15-146.46c-2.13 0-4.17 0.41-6.2 1.12l-153.97 57.11c-4.47 1.63-8.03 4.98-10.06 9.35-2.04 4.37-2.24 9.25-0.51 13.72l7.73 20.84c1.62 4.47 4.98 8.03 9.35 10.06 4.37 2.04 9.25 2.24 13.72 0.51l153.97-57.12c4.47-1.63 8.03-4.98 10.06-9.35 2.04-4.37 2.24-9.25 0.51-13.72l-7.73-20.84c-1.62-4.47-4.98-8.02-9.35-10.06-2.44-1.01-4.98-1.62-7.52-1.62z m0 0" fill="#CA3A2A" p-id="6016"></path><path d="M499.46 627.24L373.64 732.63c-14.43 12.1-36.08 10.16-48.18-4.27l-14.23-17.07c-12.09-14.44-10.16-36.08 4.27-48.18l125.92-105.49c14.43-12.09 36.08-10.16 48.18 4.27l14.23 17.08c11.99 14.43 10.06 36.18-4.37 48.27z m0 0" fill="#FF664D" p-id="6017"></path><path d="M351.68 756.93c-14.43 0-28.76-6.1-38.72-17.99l-14.23-17.07c-17.88-21.34-15.04-53.26 6.3-71.14l125.72-105.5c10.26-8.64 23.37-12.7 36.89-11.58 13.41 1.22 25.61 7.52 34.25 17.79l14.23 17.07c8.64 10.27 12.7 23.38 11.59 36.89-1.12 13.52-7.52 25.61-17.79 34.25L384 745.14c-9.35 7.93-20.93 11.79-32.32 11.79z m111.5-190.87c-4.27 0-8.23 1.42-11.48 4.16l-125.93 105.4c-7.62 6.4-8.64 17.69-2.24 25.31L337.76 718c6.41 7.62 17.69 8.64 25.31 2.24l125.92-105.49c3.66-3.05 5.9-7.42 6.3-12.2 0.41-4.78-1.01-9.45-4.06-13.11L477 572.36c-3.05-3.66-7.42-5.89-12.2-6.3h-1.62z m0 0" fill="#CA3A2A" p-id="6018"></path></svg>