<svg t="1770964538428" class="icon" viewBox="0 0 1205 1024" version="1.1" xmlns="http://www.w3.org/2000/svg" p-id="8042" width="32" height="32"><path d="M496.171766 113.410975c27.293885-3.328523 27.293885-34.172832 27.293885-54.587771C506.379235 24.428471 485.964296-2.865414 438.033571 0.241207c-34.172832 31.066211-95.639549 7.100848-119.604911 55.031573a217.907278 217.907278 0 0 0 177.521204 58.138195zM1005.43572 386.793629c-13.757893-47.930725 20.414938-109.397442-10.207469-160.65669A149.561615 149.561615 0 0 0 909.796171 198.843054C766.225897 256.759347 643.514365 399.663916 520.137128 488.424518c-27.293885-41.051778 0-98.968071-6.878946-143.570273l78.553132-37.723256c0-23.965363-20.414938-41.051778-30.622407-61.466717-30.844309-54.58777-82.103557-13.757893-126.483858-17.086416-99.189973 64.79524-208.587415 105.847018-307.555487 160.65669-37.723256 0-82.103557 17.086416-122.933433 20.414938-17.086416 37.501354 23.965363 44.380301 47.930725 44.380301 88.760602 44.380301 163.985212-37.723256 246.088769-54.58777 30.844309 61.466717-3.328523 140.01985-41.051778 194.829521-3.328523 61.466717-71.674186 95.639549-75.224611 157.106266 13.757893 41.051778 20.63684 109.397442 82.103557 109.397442 34.172832-37.501354 61.466717-88.760602 106.06892-112.725965 23.965363 78.553133-51.259248 194.829522 58.138194 249.417292 20.414938 3.328523 30.844309 17.086416 47.708824 0 23.965363-126.483858 6.878947-242.538345 13.757893-372.572627 99.189973-122.933434 221.901505-218.794884 348.607265-307.555486 99.189973-17.086416 34.172832 112.725965 109.397442 146.898796a305.780274 305.780274 0 0 1 156.662462 294.907101c3.328523 51.259248-27.293885 88.760602-41.051778 126.483858 3.328523 10.207469 20.414938 20.414938 30.844309 10.207469 54.58777-27.293885 112.725965-85.43208 105.847018-153.777743 30.844309-146.898796-78.553133-273.382654-194.829521-355.042408z m-587.817087 17.086416c-3.328523 41.051778-3.328523 82.103557-20.414939 112.725965-20.414938-37.501354-6.878947-88.760602-27.293885-129.812381 6.878947-20.414938 54.58777-20.414938 47.930725 17.086416z" fill="#B61D22" p-id="8043"></path><path d="M906.245747 821.276776c3.328523-13.757893 23.965363-30.844309 37.501355-23.965362 27.293885 13.757893 61.466717 0 51.259247-37.723256-3.328523-23.965363-27.293885-23.965363-44.380301-30.622408-41.051778-27.293885-3.328523-82.103557-17.086416-122.933434-20.414938-37.501354-64.79524-82.103557-102.518495-58.138194A166.869932 166.869932 0 0 1 865.41587 673.712275c-3.328523 20.414938-10.207469 51.259248-37.723256 47.930725-34.172832 6.878947-65.017141 13.757893-92.311026-6.878946-13.757893-44.380301-6.878947-106.068919-54.58777-129.812381-30.844309 3.328523-44.380301 30.844309-23.965363 54.58777-3.328523 98.968071-44.380301 194.829522-30.844309 287.140548 20.414938 54.58777 78.553133 58.138194 122.933434 75.22461 17.086416 3.328523 41.051778 37.501354 54.58777 13.757894 71.674186-10.207469 122.933434-65.017141 187.950575-92.311026 13.757893-20.414938 37.501354-34.172832 41.051779-61.466717-27.293885 13.757893-75.22461 10.207469-106.06892 23.965362-44.380301 0-20.414938-37.501354-20.414938-65.017141z m-47.930725 10.207469c-13.535992 23.965363-20.414938 58.138194-58.138194 54.587771-27.293885-6.878947-54.58777 3.328523-61.466717-30.84431-13.757893-34.172832 3.328523-65.017141 10.207469-95.639548 30.622408 37.723256 133.140903-6.878947 109.397442 71.674186z" fill="#B61D22" p-id="8044"></path></svg>